<svg width="281" height="95" viewBox="0 0 281 95" fill="none" xmlns="http://www.w3.org/2000/svg">
<g clip-path="url(#clip0_1909_8400)">
<g clip-path="url(#clip1_1909_8400)" filter="url(#filter0_d_1909_8400)">
<mask id="mask0_1909_8400" style="mask-type:luminance" maskUnits="userSpaceOnUse" x="56" y="0" width="38" height="95">
<path d="M56.2485 0.0467529H93.0207V94.4473H56.2485V0.0467529Z" fill="white"/>
</mask>
<g mask="url(#mask0_1909_8400)">
<mask id="mask1_1909_8400" style="mask-type:luminance" maskUnits="userSpaceOnUse" x="56" y="0" width="38" height="95">
<path d="M56.2485 4.90859V89.5918C56.2485 92.2781 57.8804 94.4537 59.8954 94.4537H89.5115C91.5265 94.4537 93.1584 92.2781 93.1584 89.5918V4.90859C93.1584 2.22445 91.5265 0.0467529 89.5115 0.0467529H59.8954C57.8804 0.0467529 56.2485 2.22445 56.2485 4.90859Z" fill="white"/>
</mask>
<g mask="url(#mask1_1909_8400)">
<path d="M56.2485 0.0467529H93.0207V94.4473H56.2485V0.0467529Z" fill="#0C54C9" fill-opacity="0.7"/>
</g>
</g>
<mask id="mask2_1909_8400" style="mask-type:luminance" maskUnits="userSpaceOnUse" x="24" y="17" width="41" height="78">
<path d="M24.5573 17.1228H64.6953V94.4134H24.5573V17.1228Z" fill="white"/>
</mask>
<g mask="url(#mask2_1909_8400)">
<mask id="mask3_1909_8400" style="mask-type:luminance" maskUnits="userSpaceOnUse" x="24" y="17" width="41" height="78">
<path d="M24.5573 21.1034V90.4379C24.5573 92.6373 26.3385 94.4186 28.5379 94.4186H60.865C63.0643 94.4186 64.8456 92.6373 64.8456 90.4379V21.1034C64.8456 18.9058 63.0643 17.1228 60.865 17.1228H28.5379C26.3385 17.1228 24.5573 18.9058 24.5573 21.1034Z" fill="white"/>
</mask>
<g mask="url(#mask3_1909_8400)">
<path d="M24.5573 17.1228H64.6953V94.4134H24.5573V17.1228Z" fill="#307FFF"/>
</g>
</g>
<mask id="mask4_1909_8400" style="mask-type:luminance" maskUnits="userSpaceOnUse" x="0" y="32" width="36" height="63">
<path d="M0.0482178 32.9026H35.2104V94.2706H0.0482178V32.9026Z" fill="white"/>
</mask>
<g mask="url(#mask4_1909_8400)">
<mask id="mask5_1909_8400" style="mask-type:luminance" maskUnits="userSpaceOnUse" x="0" y="32" width="36" height="63">
<path d="M0.0482178 36.8832V90.4075C0.0482178 92.6069 1.83121 94.3881 4.02885 94.3881H31.2281C33.4275 94.3881 35.2087 92.6069 35.2087 90.4075V36.8832C35.2087 34.6856 33.4275 32.9026 31.2281 32.9026H4.02885C1.83121 32.9026 0.0482178 34.6856 0.0482178 36.8832Z" fill="white"/>
</mask>
<g mask="url(#mask5_1909_8400)">
<path d="M0.0482178 32.9026H35.2104V94.2706H0.0482178V32.9026Z" fill="#0C54C9"/>
</g>
</g>
</g>
<path d="M137.009 84.7991H117.778L114.595 94H104.426L121.79 45.6435H133.066L150.43 94H140.192L137.009 84.7991ZM134.381 77.051L127.393 56.8506L120.406 77.051H134.381ZM174.828 94.4843C171.462 94.4843 168.418 93.9078 165.697 92.7548C163.022 91.6018 160.9 89.9415 159.332 87.7738C157.764 85.6062 156.957 83.0466 156.911 80.0949H167.288C167.426 82.0781 168.118 83.6461 169.363 84.7991C170.655 85.9521 172.407 86.5286 174.621 86.5286C176.881 86.5286 178.656 85.9982 179.948 84.9375C181.239 83.8306 181.885 82.4009 181.885 80.6483C181.885 79.2186 181.447 78.0426 180.57 77.1202C179.694 76.1978 178.587 75.4829 177.25 74.9756C175.958 74.4222 174.16 73.8226 171.854 73.1769C168.717 72.2546 166.158 71.3552 164.175 70.4789C162.238 69.5566 160.554 68.196 159.125 66.3974C157.741 64.5526 157.049 62.1082 157.049 59.0643C157.049 56.2049 157.764 53.7144 159.194 51.5929C160.623 49.4714 162.63 47.8572 165.212 46.7504C167.795 45.5974 170.747 45.0209 174.067 45.0209C179.048 45.0209 183.084 46.243 186.174 48.6874C189.31 51.0856 191.039 54.4523 191.362 58.7876H180.709C180.616 57.1273 179.902 55.7668 178.564 54.706C177.273 53.5991 175.543 53.0457 173.376 53.0457C171.485 53.0457 169.963 53.53 168.81 54.4985C167.703 55.467 167.149 56.8736 167.149 58.7184C167.149 60.0098 167.564 61.0936 168.395 61.9699C169.271 62.8 170.332 63.4918 171.577 64.0452C172.868 64.5526 174.667 65.1521 176.973 65.8439C180.109 66.7663 182.669 67.6887 184.652 68.6111C186.635 69.5335 188.341 70.9171 189.771 72.7619C191.201 74.6067 191.916 77.0279 191.916 80.0257C191.916 82.6084 191.247 85.0067 189.909 87.2204C188.572 89.4341 186.612 91.2098 184.029 92.5472C181.447 93.8386 178.38 94.4843 174.828 94.4843ZM246.662 69.2337C249.383 69.741 251.62 71.1016 253.373 73.3153C255.125 75.5291 256.002 78.0656 256.002 80.9251C256.002 83.5078 255.356 85.7907 254.065 87.7738C252.819 89.7109 250.998 91.2328 248.599 92.3397C246.201 93.4466 243.365 94 240.09 94H219.267V45.7127H239.191C242.465 45.7127 245.279 46.243 247.631 47.3038C250.029 48.3645 251.828 49.8404 253.027 51.7313C254.272 53.6222 254.895 55.7668 254.895 58.165C254.895 60.9783 254.134 63.3304 252.612 65.2213C251.136 67.1122 249.153 68.4497 246.662 69.2337ZM228.952 65.6364H237.807C240.113 65.6364 241.889 65.1291 243.134 64.1144C244.379 63.0537 245.002 61.5548 245.002 59.6178C245.002 57.6807 244.379 56.1818 243.134 55.1211C241.889 54.0603 240.113 53.53 237.807 53.53H228.952V65.6364ZM238.707 86.1135C241.059 86.1135 242.881 85.5601 244.172 84.4532C245.509 83.3463 246.178 81.7783 246.178 79.749C246.178 77.6736 245.486 76.0594 244.103 74.9064C242.719 73.7073 240.851 73.1078 238.499 73.1078H228.952V86.1135H238.707ZM269.868 51.1087C268.161 51.1087 266.731 50.5783 265.579 49.5175C264.472 48.4107 263.918 47.0501 263.918 45.4359C263.918 43.8218 264.472 42.4843 265.579 41.4235C266.731 40.3167 268.161 39.7632 269.868 39.7632C271.574 39.7632 272.981 40.3167 274.088 41.4235C275.241 42.4843 275.817 43.8218 275.817 45.4359C275.817 47.0501 275.241 48.4107 274.088 49.5175C272.981 50.5783 271.574 51.1087 269.868 51.1087ZM274.641 55.6745V94H264.956V55.6745H274.641Z" fill="white"/>
</g>
<defs>
<filter id="filter0_d_1909_8400" x="-2.68592" y="-1.34296" width="98.3718" height="99.7149" filterUnits="userSpaceOnUse" color-interpolation-filters="sRGB">
<feFlood flood-opacity="0" result="BackgroundImageFix"/>
<feColorMatrix in="SourceAlpha" type="matrix" values="0 0 0 0 0 0 0 0 0 0 0 0 0 0 0 0 0 0 127 0" result="hardAlpha"/>
<feOffset dy="1.34296"/>
<feGaussianBlur stdDeviation="1.34296"/>
<feComposite in2="hardAlpha" operator="out"/>
<feColorMatrix type="matrix" values="0 0 0 0 0 0 0 0 0 0 0 0 0 0 0 0 0 0 0.15 0"/>
<feBlend mode="normal" in2="BackgroundImageFix" result="effect1_dropShadow_1909_8400"/>
<feBlend mode="normal" in="SourceGraphic" in2="effect1_dropShadow_1909_8400" result="shape"/>
</filter>
<clipPath id="clip0_1909_8400">
<rect width="280.064" height="94.343" fill="white"/>
</clipPath>
<clipPath id="clip1_1909_8400">
<rect width="93" height="94.343" fill="white"/>
</clipPath>
</defs>
</svg>
