<svg width="243" height="33" viewBox="0 0 243 33" fill="none" xmlns="http://www.w3.org/2000/svg">
<path fill-rule="evenodd" clip-rule="evenodd" d="M41.8204 24.6677C37.5168 18.2681 21.9582 19.04 21.2962 5.3576C21.2329 4.05483 21.7143 1.89408 22.1746 0.171387H17.3664L30.1464 32.1714H42.8066C43.4243 30.4472 43.8284 27.6544 41.8204 24.6677ZM8.70687 0.171387H3.31029C1.48167 0.171387 0 1.65369 0 3.48169V21.6184L8.70687 0.171387ZM29.6823 4.58506C32.009 15.5406 47.3666 11.4213 50.5369 22.6082V3.48173C50.5369 1.65356 49.0552 0.171454 47.2266 0.171454H30.1645C29.6692 1.28107 29.3031 2.8004 29.6823 4.58506ZM21.1911 32.1713L12.7996 9.44054L3.90058 32.1713H21.1911Z" fill="white"/>
<path fill-rule="evenodd" clip-rule="evenodd" d="M58.848 14.3495C58.5878 14.9244 57.881 15.192 57.2694 14.9475C56.6579 14.7028 56.373 14.0383 56.6333 13.4635L62.3436 0.848138C62.6039 0.273271 63.3107 0.00549384 63.9223 0.250146C64.2419 0.37795 64.4721 0.620443 64.5821 0.904858L70.068 13.4768C70.3204 14.0541 70.0272 14.7145 69.413 14.9519C68.7989 15.1892 68.0963 14.9135 67.8439 14.3361L63.4313 4.22409L58.848 14.3495ZM145.599 12.1097C146.349 12.5222 147.403 12.8292 148.371 12.8292C148.827 12.8292 149.257 12.7613 149.618 12.6038C149.956 12.4558 150.237 12.2256 150.419 11.8936C150.575 11.6106 150.664 11.2473 150.664 10.7901C150.664 9.42706 149.384 8.9333 148.007 8.40197C146.144 7.6833 144.126 6.90491 144.126 4.09261C144.126 3.48626 144.241 2.94736 144.445 2.47432C144.817 1.61551 145.48 0.992523 146.291 0.586051C147.083 0.189266 148.013 0 148.943 0C149.851 0 150.768 0.180475 151.563 0.524251C152.135 0.771602 152.375 1.22215 152.381 1.65962C152.383 1.83494 152.346 2.0075 152.277 2.16338C152.207 2.32113 152.103 2.46279 151.972 2.57411C151.66 2.84061 151.209 2.94037 150.709 2.69387C150.175 2.43045 149.523 2.27672 148.894 2.27672C148.451 2.27672 148.025 2.35311 147.669 2.52129C147.333 2.68003 147.057 2.92326 146.889 3.26459C146.768 3.50918 146.699 3.81004 146.699 4.17373C146.699 5.20077 147.819 5.62814 149.087 6.11176C151.016 6.84762 153.238 7.69531 153.238 10.7901C153.238 11.7345 152.995 12.5182 152.582 13.1521C152.117 13.8658 151.442 14.3805 150.661 14.715C149.896 15.0427 149.029 15.1976 148.161 15.1976C146.85 15.1976 145.523 14.8432 144.53 14.1968C144.089 13.9098 143.971 13.4991 144.041 13.104C144.07 12.9429 144.132 12.7871 144.216 12.6473C144.299 12.5112 144.404 12.3873 144.523 12.2868C144.835 12.0218 145.241 11.9132 145.599 12.1097ZM162.955 12.1097C163.705 12.5222 164.759 12.8292 165.727 12.8292C166.183 12.8292 166.613 12.7613 166.974 12.6038C167.312 12.4558 167.593 12.2256 167.775 11.8936C167.931 11.6106 168.02 11.2473 168.02 10.7901C168.02 9.42706 166.74 8.9333 165.363 8.40197C163.5 7.6833 161.482 6.90491 161.482 4.09261C161.482 3.48626 161.597 2.94736 161.801 2.47432C162.173 1.61551 162.836 0.992523 163.647 0.586051C164.439 0.189266 165.369 0 166.299 0C167.207 0 168.124 0.180475 168.919 0.524251C169.491 0.771602 169.731 1.22215 169.737 1.65962C169.739 1.83494 169.702 2.0075 169.633 2.16338C169.563 2.32113 169.459 2.46279 169.328 2.57411C169.016 2.84061 168.565 2.94037 168.065 2.69387C167.531 2.43045 166.879 2.27672 166.25 2.27672C165.807 2.27672 165.381 2.35311 165.025 2.52129C164.689 2.68003 164.413 2.92326 164.245 3.26459C164.124 3.50918 164.055 3.81004 164.055 4.17373C164.055 5.20077 165.175 5.62814 166.443 6.11176C168.372 6.84762 170.594 7.69531 170.594 10.7901C170.594 11.7345 170.351 12.5182 169.938 13.1521C169.473 13.8658 168.798 14.3805 168.017 14.715C167.252 15.0427 166.385 15.1976 165.517 15.1976C164.206 15.1976 162.879 14.8432 161.886 14.1968C161.445 13.9098 161.327 13.4991 161.398 13.104C161.426 12.9429 161.488 12.7871 161.572 12.6473C161.655 12.5112 161.76 12.3873 161.879 12.2868C162.191 12.0218 162.597 11.9132 162.955 12.1097ZM234.556 12.1097C235.306 12.5222 236.36 12.8292 237.328 12.8292C237.784 12.8292 238.214 12.7613 238.575 12.6038C238.913 12.4558 239.194 12.2256 239.376 11.8936C239.532 11.6106 239.621 11.2473 239.621 10.7901C239.621 9.42706 238.341 8.9333 236.964 8.40197C235.101 7.6833 233.083 6.90491 233.083 4.09261C233.083 3.48626 233.198 2.94736 233.403 2.47432C233.774 1.61551 234.437 0.992523 235.248 0.586051C236.04 0.189266 236.97 0 237.9 0C238.808 0 239.725 0.180475 240.52 0.524251C241.092 0.771602 241.332 1.22215 241.338 1.65962C241.34 1.83494 241.303 2.0075 241.234 2.16338C241.164 2.32113 241.06 2.46279 240.929 2.57411C240.617 2.84061 240.166 2.94037 239.666 2.69387C239.132 2.43045 238.48 2.27672 237.851 2.27672C237.408 2.27672 236.982 2.35311 236.626 2.52129C236.29 2.68003 236.014 2.92326 235.846 3.26459C235.725 3.50918 235.656 3.81004 235.656 4.17373C235.656 5.20077 236.777 5.62814 238.044 6.11176C239.973 6.84762 242.195 7.69531 242.195 10.7901C242.195 11.7345 241.952 12.5182 241.539 13.1521C241.074 13.8658 240.399 14.3805 239.618 14.715C238.852 15.0427 237.986 15.1976 237.118 15.1976C235.807 15.1976 234.48 14.8432 233.487 14.1968C233.047 13.9098 232.928 13.4991 232.999 13.104C233.027 12.9429 233.089 12.7871 233.174 12.6473C233.256 12.5112 233.361 12.3873 233.48 12.2868C233.792 12.0218 234.198 11.9132 234.556 12.1097ZM83.0572 0.679681C83.6476 0.910898 83.9245 1.54367 83.6758 2.09268C83.4271 2.64179 82.7468 2.89932 82.1564 2.66801C81.8103 2.53265 81.4489 2.42859 81.0773 2.35894C80.7259 2.29319 80.3482 2.25881 79.9476 2.25881C78.3657 2.25881 76.9358 2.8549 75.903 3.81858C74.8679 4.78423 74.2277 6.12067 74.2277 7.59881C74.2277 9.07698 74.8679 10.4134 75.903 11.379C76.9359 12.3427 78.3657 12.9388 79.9476 12.9388C80.3446 12.9388 80.7269 12.9038 81.0891 12.8351C81.218 12.8106 81.3467 12.7817 81.4746 12.7484V8.30877C81.4746 7.71059 81.9961 7.22569 82.6392 7.22569C83.2823 7.22569 83.8037 7.71059 83.8037 8.30877V13.5105H83.8012C83.8009 13.9306 83.5359 14.33 83.094 14.5048C82.6004 14.7004 82.084 14.8496 81.553 14.9503C81.0134 15.0528 80.4755 15.1048 79.9476 15.1048C77.7274 15.1048 75.7149 14.2629 74.2563 12.902C72.7995 11.5432 71.8987 9.66795 71.8987 7.59881C71.8987 5.52967 72.7997 3.65448 74.2561 2.29551C75.7149 0.934504 77.7275 0.0927384 79.9476 0.0927384C80.4718 0.0927384 81.0025 0.144483 81.5322 0.243671C82.0602 0.342573 82.5707 0.489435 83.0572 0.679681ZM201.571 13.8547C201.514 14.5158 200.932 15.0052 200.271 14.948C199.61 14.8907 199.12 14.3084 199.177 13.6474L200.273 1.34275C200.33 0.681748 200.912 0.192261 201.573 0.249525C201.981 0.284906 202.323 0.519929 202.512 0.849921L202.516 0.848021L207.314 9.20958L212.216 0.838619C212.551 0.266103 213.288 0.074175 213.86 0.409821C214.21 0.614549 214.417 0.968415 214.45 1.34325L214.454 1.34294L215.52 13.6475C215.577 14.3111 215.086 14.8957 214.422 14.9529C213.758 15.0101 213.174 14.5186 213.117 13.8549L212.377 5.31974L208.385 12.1375C208.283 12.3478 208.119 12.5307 207.9 12.6556C207.323 12.9861 206.586 12.7857 206.256 12.208L202.327 5.36217L201.571 13.8547ZM195.811 0.305064C196.477 0.305064 197.017 0.823594 197.017 1.46319C197.017 2.10278 196.477 2.62129 195.811 2.62129H189.254V5.96718H194.952C195.618 5.96718 196.158 6.4857 196.158 7.12529C196.158 7.76488 195.618 8.28341 194.952 8.28341H189.254V12.5762H195.78C196.447 12.5762 196.987 13.0947 196.987 13.7343C196.987 14.3739 196.447 14.8924 195.78 14.8924H188.048C187.382 14.8924 186.841 14.3739 186.841 13.7343V1.46319C186.841 0.823594 187.382 0.305064 188.048 0.305064H195.811ZM173.227 2.66949C172.561 2.66949 172.021 2.12932 172.021 1.46311C172.021 0.796933 172.561 0.256795 173.227 0.256795H183.712C184.378 0.256795 184.918 0.796933 184.918 1.46311C184.918 2.12932 184.378 2.66949 183.712 2.66949H179.676V13.7345C179.676 14.4007 179.136 14.9408 178.47 14.9408C177.803 14.9408 177.263 14.4007 177.263 13.7345V2.66949H173.227ZM125.97 0.285058H130.723C132.069 0.285058 133.287 0.830046 134.165 1.708C135.018 2.5617 135.548 3.73251 135.548 5.01412C135.548 6.29591 135.018 7.46661 134.165 8.32036C133.699 8.78556 133.139 9.15728 132.514 9.40393L135.254 13.14C135.626 13.6476 135.48 14.3367 134.929 14.679C134.377 15.0214 133.628 14.8875 133.256 14.38L129.856 9.74333H127.177V13.8027C127.177 14.4156 126.637 14.9125 125.97 14.9125C125.304 14.9125 124.764 14.4156 124.764 13.8027V1.39489C124.764 0.781979 125.304 0.285058 125.97 0.285058ZM130.723 2.50477H127.177V7.52358H130.723C131.367 7.52358 131.959 7.25416 132.393 6.82025C132.851 6.36207 133.136 5.7231 133.136 5.01417C133.136 4.30531 132.851 3.66625 132.393 3.2081C131.959 2.77416 131.367 2.50477 130.723 2.50477ZM155.633 1.38464C155.633 0.811679 156.173 0.347149 156.839 0.347149C157.506 0.347149 158.046 0.811679 158.046 1.38464V13.8129C158.046 14.3858 157.506 14.8504 156.839 14.8504C156.173 14.8504 155.633 14.3858 155.633 13.8129V1.38464ZM103.019 1.38464C103.019 0.811679 103.559 0.347149 104.226 0.347149C104.892 0.347149 105.432 0.811679 105.432 1.38464V13.8129C105.432 14.3858 104.892 14.8504 104.226 14.8504C103.559 14.8504 103.019 14.3858 103.019 13.8129V1.38464ZM96.9728 1.38474C96.9728 0.718559 97.513 0.178382 98.1792 0.178382C98.8454 0.178382 99.3855 0.718559 99.3855 1.38474V8.99743C99.3855 10.6544 98.7082 12.1601 97.6174 13.2509C96.5265 14.3418 95.0208 15.0191 93.3638 15.0191C91.7068 15.0191 90.2009 14.3419 89.11 13.251C88.0193 12.1603 87.342 10.6545 87.342 8.99743V1.38474C87.342 0.718559 87.8821 0.178382 88.5484 0.178382C89.2146 0.178382 89.7547 0.718559 89.7547 1.38474V8.99743C89.7547 9.98848 90.1612 10.8905 90.8159 11.5452C91.4707 12.2 92.3727 12.6064 93.3637 12.6064C94.3547 12.6064 95.2567 12.1999 95.9115 11.5451C96.5662 10.8903 96.9728 9.98829 96.9728 8.99743V1.38474ZM220.05 14.3495C219.79 14.9244 219.083 15.192 218.472 14.9475C217.86 14.7028 217.575 14.0383 217.836 13.4635L223.546 0.848138C223.806 0.273271 224.513 0.00549384 225.125 0.250146C225.444 0.37795 225.675 0.620443 225.785 0.904858L231.27 13.4768C231.523 14.0541 231.23 14.7145 230.615 14.9519C230.001 15.1892 229.299 14.9135 229.046 14.3361L224.634 4.22409L220.05 14.3495ZM110.657 14.3495C110.397 14.9244 109.69 15.192 109.079 14.9475C108.467 14.7028 108.182 14.0383 108.443 13.4635L114.153 0.848138C114.413 0.273271 115.12 0.00549384 115.732 0.250146C116.051 0.37795 116.282 0.620423 116.392 0.904839L121.878 13.4768C122.13 14.0541 121.837 14.7145 121.222 14.9519C120.608 15.1892 119.906 14.9135 119.653 14.3361L115.241 4.22409L110.657 14.3495Z" fill="white"/>
<path fill-rule="evenodd" clip-rule="evenodd" d="M60.0712 29.4337C62.5045 29.4337 63.6192 28.2374 63.6192 26.8373C63.6192 23.3709 57.7603 24.9478 57.7603 22.3378C57.7603 21.3862 58.5351 20.6114 60.2751 20.6114C61.118 20.6114 62.0696 20.8696 62.8851 21.3999L63.225 20.5978C62.4637 20.0676 61.349 19.755 60.2751 19.755C57.8555 19.755 56.768 20.9649 56.768 22.365C56.768 25.8858 62.6269 24.2817 62.6269 26.8917C62.6269 27.8297 61.852 28.5773 60.0712 28.5773C58.8206 28.5773 57.6108 28.0879 56.9311 27.4219L56.5369 28.1967C57.2438 28.9307 58.6439 29.4337 60.0712 29.4337ZM68.5265 29.4201C70.6199 29.4201 72.1561 27.8977 72.1561 25.777C72.1561 23.6564 70.6199 22.1474 68.5265 22.1474C66.433 22.1474 64.8834 23.6564 64.8834 25.777C64.8834 27.8977 66.433 29.4201 68.5265 29.4201ZM68.5265 28.5637C67.004 28.5637 65.8622 27.449 65.8622 25.777C65.8622 24.105 67.004 22.9903 68.5265 22.9903C70.049 22.9903 71.1773 24.105 71.1773 25.777C71.1773 27.449 70.049 28.5637 68.5265 28.5637ZM74.1271 29.3522H75.0923V19.2656H74.1271V29.3522ZM83.262 22.2019V25.9537C83.262 27.5849 82.3241 28.5501 80.8288 28.5501C79.4695 28.5501 78.681 27.7753 78.681 26.2528V22.2019H77.7158V26.3479C77.7158 28.4006 78.9121 29.4201 80.7336 29.4201C81.8756 29.4201 82.7999 28.9171 83.3029 28.0471V29.3522H84.2272V22.2019H83.262ZM89.8957 28.5637C88.3324 28.5637 87.1907 27.4627 87.1907 25.777C87.1907 24.105 88.3324 22.9903 89.8957 22.9903C90.725 22.9903 91.4862 23.3301 91.9756 24.0506L92.6961 23.5613C92.1252 22.6233 91.1056 22.1474 89.8957 22.1474C87.7615 22.1474 86.2119 23.6428 86.2119 25.777C86.2119 27.7073 87.4761 29.1211 89.2977 29.3793L88.9986 30.5076H89.3113C89.8822 30.5076 90.1541 30.7658 90.1541 31.1329C90.1541 31.5407 89.8549 31.7718 89.3113 31.7718C88.985 31.7718 88.6859 31.6902 88.4141 31.5136L88.1829 32.0301C88.5093 32.2476 88.8762 32.3428 89.3248 32.3428C90.2356 32.3428 90.8609 31.8941 90.8609 31.1601C90.8609 30.5619 90.4531 30.1269 89.7055 30.059L89.8686 29.4201H89.8957C91.1056 29.4201 92.1252 28.9307 92.6961 28.0063L91.9756 27.517C91.4862 28.2374 90.725 28.5637 89.8957 28.5637ZM98.2966 21.0192C99.0171 21.0192 99.493 20.4347 99.5201 19.5511H98.9355C98.9084 20.0676 98.6366 20.3939 98.2287 20.3939C97.6986 20.3939 97.2907 19.4696 96.4479 19.4696C95.7275 19.4696 95.2516 20.054 95.2246 20.9649H95.809C95.8362 20.4211 96.1081 20.0949 96.5159 20.0949C97.0596 20.0949 97.4539 21.0192 98.2966 21.0192ZM97.3859 29.4201C99.4793 29.4201 101.015 27.8977 101.015 25.777C101.015 23.6564 99.4793 22.1474 97.3859 22.1474C95.2925 22.1474 93.7428 23.6564 93.7428 25.777C93.7428 27.8977 95.2925 29.4201 97.3859 29.4201ZM97.3859 28.5637C95.8634 28.5637 94.7216 27.449 94.7216 25.777C94.7216 24.105 95.8634 22.9903 97.3859 22.9903C98.9084 22.9903 100.037 24.105 100.037 25.777C100.037 27.449 98.9084 28.5637 97.3859 28.5637ZM109.226 25.777C109.226 23.6292 107.771 22.1474 105.76 22.1474C103.748 22.1474 102.266 23.6564 102.266 25.777C102.266 27.8977 103.789 29.4201 106.018 29.4201C107.146 29.4201 108.138 29.0123 108.777 28.251L108.234 27.6258C107.69 28.251 106.915 28.5637 106.045 28.5637C104.482 28.5637 103.34 27.5714 103.231 26.076H109.212C109.212 25.9673 109.226 25.8586 109.226 25.777ZM105.76 22.9767C107.16 22.9767 108.179 23.9554 108.302 25.3556H103.231C103.354 23.9554 104.373 22.9767 105.76 22.9767ZM113.114 29.4201C114.976 29.4201 116.064 28.6181 116.064 27.381C116.064 24.6374 111.428 26.0919 111.428 24.1594C111.428 23.4796 111.999 22.9767 113.291 22.9767C114.025 22.9767 114.772 23.1534 115.398 23.5884L115.819 22.8136C115.221 22.4058 114.215 22.1474 113.291 22.1474C111.469 22.1474 110.463 23.0174 110.463 24.1865C110.463 27.014 115.098 25.5481 115.098 27.4083C115.098 28.1151 114.541 28.5773 113.182 28.5773C112.176 28.5773 111.211 28.2238 110.64 27.7753L110.205 28.5365C110.789 29.0394 111.931 29.4201 113.114 29.4201ZM127.646 25.777C127.646 23.6292 126.191 22.1474 124.179 22.1474C122.167 22.1474 120.686 23.6564 120.686 25.777C120.686 27.8977 122.208 29.4201 124.437 29.4201C125.566 29.4201 126.558 29.0123 127.197 28.251L126.653 27.6258C126.109 28.251 125.335 28.5637 124.465 28.5637C122.901 28.5637 121.759 27.5714 121.651 26.076H127.632C127.632 25.9673 127.646 25.8586 127.646 25.777ZM124.179 22.9767C125.579 22.9767 126.599 23.9554 126.721 25.3556H121.651C121.773 23.9554 122.793 22.9767 124.179 22.9767ZM138.534 22.1474C137.243 22.1474 136.223 22.732 135.706 23.6564C135.272 22.6505 134.347 22.1474 133.164 22.1474C131.968 22.1474 131.044 22.6505 130.541 23.5069V22.2019H129.617V29.3522H130.582V25.6003C130.582 23.969 131.52 23.0174 132.974 23.0174C134.279 23.0174 135.04 23.7923 135.04 25.3012V29.3522H136.006V25.6003C136.006 23.969 136.93 23.0174 138.398 23.0174C139.689 23.0174 140.451 23.7923 140.451 25.3012V29.3522H141.416V25.2061C141.416 23.1534 140.274 22.1474 138.534 22.1474ZM150.429 29.4337C152.862 29.4337 153.977 28.2374 153.977 26.8373C153.977 23.3709 148.118 24.9478 148.118 22.3378C148.118 21.3862 148.892 20.6114 150.632 20.6114C151.475 20.6114 152.427 20.8696 153.242 21.3999L153.582 20.5978C152.821 20.0676 151.706 19.755 150.632 19.755C148.213 19.755 147.125 20.9649 147.125 22.365C147.125 25.8858 152.984 24.2817 152.984 26.8917C152.984 27.8297 152.209 28.5773 150.429 28.5773C149.178 28.5773 147.968 28.0879 147.288 27.4219L146.894 28.1967C147.601 28.9307 149.001 29.4337 150.429 29.4337ZM158.884 29.4201C160.977 29.4201 162.513 27.8977 162.513 25.777C162.513 23.6564 160.977 22.1474 158.884 22.1474C156.79 22.1474 155.241 23.6564 155.241 25.777C155.241 27.8977 156.79 29.4201 158.884 29.4201ZM158.884 28.5637C157.361 28.5637 156.219 27.449 156.219 25.777C156.219 24.105 157.361 22.9903 158.884 22.9903C160.406 22.9903 161.535 24.105 161.535 25.777C161.535 27.449 160.406 28.5637 158.884 28.5637ZM166.85 20.0133C167.258 20.0133 167.638 20.1356 167.91 20.3667L168.236 19.6462C167.883 19.3472 167.339 19.1976 166.809 19.1976C165.409 19.1976 164.648 20.0405 164.648 21.3182V22.2019H163.37V23.0174H164.648V29.3522H165.613V23.0174H167.788V22.2019H165.585V21.359C165.585 20.4755 166.02 20.0133 166.85 20.0133ZM172.518 28.2239C172.246 28.4685 171.852 28.5908 171.458 28.5908C170.656 28.5908 170.221 28.1287 170.221 27.2858V23.0174H172.396V22.2019H170.221V20.6386H169.256V22.2019H167.978V23.0174H169.256V27.3403C169.256 28.6589 170.003 29.4201 171.349 29.4201C171.906 29.4201 172.477 29.257 172.858 28.9172L172.518 28.2239ZM184.086 22.2019L181.816 28.2782L179.533 22.2019H178.703L176.406 28.2782L174.163 22.2019H173.239L175.93 29.3522H176.841L179.098 23.4933L181.354 29.3522H182.265L184.97 22.2019H184.086ZM188.708 22.1474C187.58 22.1474 186.52 22.5009 185.799 23.1126L186.234 23.8331C186.819 23.3165 187.689 22.9903 188.613 22.9903C189.945 22.9903 190.639 23.6564 190.639 24.8798V25.3148H188.368C186.316 25.3148 185.609 26.2392 185.609 27.3403C185.609 28.5773 186.601 29.4201 188.219 29.4201C189.402 29.4201 190.244 28.9715 190.679 28.2374V29.3522H191.604V24.9206C191.604 23.0718 190.557 22.1474 188.708 22.1474ZM188.368 28.6588C187.227 28.6588 186.561 28.1423 186.561 27.3131C186.561 26.579 187.009 26.0353 188.396 26.0353H190.639V27.2043C190.258 28.1423 189.456 28.6588 188.368 28.6588ZM195.152 23.602V22.2019H194.227V29.3522H195.192V25.709C195.192 24.0234 196.103 23.0718 197.599 23.0718C197.667 23.0718 197.748 23.0855 197.83 23.0855V22.1474C196.511 22.1474 195.6 22.6505 195.152 23.602ZM205.741 25.777C205.741 23.6292 204.287 22.1474 202.275 22.1474C200.263 22.1474 198.781 23.6564 198.781 25.777C198.781 27.8977 200.304 29.4201 202.533 29.4201C203.661 29.4201 204.654 29.0123 205.293 28.251L204.749 27.6258C204.205 28.251 203.43 28.5637 202.56 28.5637C200.997 28.5637 199.855 27.5714 199.746 26.076H205.728C205.728 25.9673 205.741 25.8586 205.741 25.777ZM202.275 22.9767C203.675 22.9767 204.695 23.9554 204.817 25.3556H199.746C199.869 23.9554 200.888 22.9767 202.275 22.9767Z" fill="white"/>
</svg>
