<svg width="158" height="100" viewBox="0 0 158 100" fill="none" xmlns="http://www.w3.org/2000/svg">
<path fill-rule="evenodd" clip-rule="evenodd" d="M130.689 76.5511C117.24 56.5521 68.6192 58.9645 66.5506 16.2069C66.3529 12.1358 67.8573 5.38341 69.2957 0H54.27L94.2075 100H133.771C135.701 94.6119 136.964 85.8845 130.689 76.5511ZM27.209 0H10.3446C4.63023 0 0 4.63219 0 10.3447V67.0219L27.209 0ZM92.7572 13.7927C100.028 48.0287 148.021 35.1559 157.928 70.1152V10.3448C157.928 4.63179 153.298 0.000210776 147.583 0.000210776H94.2639C92.7162 3.46775 91.5722 8.21566 92.7572 13.7927ZM66.2223 99.9997L39.9986 28.9661L12.1893 99.9997H66.2223Z" fill="white"/>
</svg>
